# xmcd
#
# Track frame offsets: 
#        150
#        25782
#        38876
#        48461
#        61036
#        72767
#        84731
#        108359
#        122888
#        138828
#        151905
#        161329
#        171853
#        183924
#        195766
#        212066
#        223701
#        241075
#
# Disc length: 3646 seconds
#
# Revision: 4
# Processed by: cddbd v1.5.1PL0 Copyright (c) Steve Scherf et al.
# Submitted via: ExactAudioCopy v0.95a5
#
DISCID=e90e3c12
DTITLE=Various Artist - Jazz and Blues Collection Complete CD 6
DYEAR=1900
DGENRE=
TTITLE0=John Mayall - Ridin' On The L&N
TTITLE1=Elmore James - Standing At The Crossroads
TTITLE2=Eric Clapton and Jimmy Page - Tribute To The Elmore
TTITLE3=Johnny Winter - Leavin' Blues
TTITLE4=John Lee Hooker - Boogie Chillen
TTITLE5=Canned Heat - Got My Mojo Working
TTITLE6=B.B. King - You've Done Lost You're Good Thing Now
TTITLE7=Lightnin' Hopkin - Santa Fe Blue
TTITLE8=Brownie McGhee and Sonny Terry - Down By The Riverside
TTITLE9=Elmore James - Dust My Broom
TTITLE10=Canned Heat - Big Road Blues
TTITLE11=John Lee Hooker - Dusty Road
TTITLE12=Hall and Oates - Deep River Blues
TTITLE13=Johnny Guitar Watson - One Room Country Shack
TTITLE14=The Animals and Sonny Boy Williams - Pontiac Blues
TTITLE15=Big Joe Williams - Ride In My New Car
TTITLE16=Mike Bloomfield - Jockey Blues
TTITLE17=Big Mama Thornton - Bail And Chain
EXTD=
EXTT0=
EXTT1=
EXTT2=
EXTT3=
EXTT4=
EXTT5=
EXTT6=
EXTT7=
EXTT8=
EXTT9=
EXTT10=
EXTT11=
EXTT12=
EXTT13=
EXTT14=
EXTT15=
EXTT16=
EXTT17=
PLAYORDER=
